<svg width="197" height="59" viewBox="0 0 197 59" fill="none" xmlns="http://www.w3.org/2000/svg">
<path d="M106.681 22.9895C105.203 22.9895 103.613 23.2769 102.385 24.2632C101.101 25.084 100.492 25.895 100.233 26.214C99.9741 26.533 99.7856 26.3933 99.8685 26.214C99.9513 26.0347 101.02 23.4637 101.02 23.4637C101.02 23.4637 101.288 22.9895 101.02 22.724C100.751 22.4584 100.233 22.724 100.233 22.724C97.4315 23.8809 94.438 24.6397 91.2717 24.9812C91.2717 24.9812 90.6705 24.9896 90.6705 25.6251C90.6705 26.2607 91.2717 26.214 91.2717 26.214C92.4423 26.3469 93.1907 26.5934 93.5553 26.9538C93.9006 27.3143 94.0733 27.8833 94.0733 28.661V43.6647C94.0733 44.5563 93.9775 45.0304 93.3057 45.353C92.9796 45.5235 92.7109 45.6185 92.5382 45.6753C92.3463 45.7132 91.9241 45.7892 91.2717 45.922C91.2717 45.922 90.5529 45.9734 90.5999 46.5554C90.647 47.1375 91.2717 47.2307 91.2717 47.2307H103.821C103.821 47.2307 104.426 47.1609 104.426 46.5788C104.426 45.9968 103.821 45.922 103.821 45.922C103.073 45.7892 102.613 45.7132 102.401 45.6753C102.19 45.6185 101.902 45.5235 101.519 45.353C100.751 45.0304 100.674 44.5563 100.674 43.6647V40.2126C101.941 40.5918 103.207 40.7815 104.455 40.7815C106.757 40.7815 109.099 39.9659 110.979 38.4486C112.859 36.95 114.107 34.4083 114.107 31.3923C114.107 28.7937 113.358 26.7452 111.862 25.2467C110.346 23.7483 108.619 22.9895 106.681 22.9895ZM103.937 38.9985C102.862 38.9985 102.056 38.5434 101.499 37.6518C100.943 36.7604 100.674 35.6412 100.674 34.3325V29.9128C100.674 29.1731 100.981 28.3385 101.596 27.409C102.19 26.4797 102.9 26.0244 103.706 26.0244C104.762 26.0244 105.587 26.6503 106.22 27.9023C106.853 29.1541 107.16 30.7664 107.16 32.739C107.16 36.9121 106.086 38.9985 103.937 38.9985Z" fill="#24044E"/>
<path d="M153.336 38.977C153.605 39.0339 154.046 39.1288 154.64 39.2615C154.64 39.2615 155.324 39.329 155.324 40.0833C155.324 40.8375 154.64 40.8687 154.64 40.8687H142.629C142.629 40.8687 142.04 40.7293 142.04 40.0833C142.04 39.4372 142.629 39.329 142.629 39.329C143.468 39.2829 143.735 39.0519 143.735 39.0519C143.985 38.9951 144.253 38.8622 144.56 38.6915C145.174 38.3502 145.289 37.8759 145.289 37.0603V29.8248C145.289 29.0471 145.117 28.794 144.771 28.4336C144.428 28.0941 144.027 27.5883 142.829 27.4734C142.829 27.4734 141.993 27.3941 141.993 26.3466C141.993 25.2993 142.813 25.074 142.813 25.074C145.699 24.6114 148.032 24.1093 149.271 23.6982C149.271 23.6982 150.12 23.3388 150.66 23.5074C151.201 23.6761 151.036 24.6009 151.036 24.6009C150.958 25.2516 150.833 26.268 150.802 26.4398C150.754 26.6958 150.943 26.8528 151.103 26.5561C152.356 24.2279 155.601 23.1525 157.75 23.1525C158.248 23.1525 160.026 23.0712 160.253 23.5074C160.482 23.9436 159.187 24.6004 158.291 25.9509C157.702 26.8411 157.048 28.2092 156.927 28.6049C156.808 29.0008 156.289 28.7327 156.289 28.7327C155.35 28.35 153.855 28.2792 153.015 29.0453C151.979 29.9904 151.743 31.2839 151.743 32.7446V36.9854C151.743 37.8199 151.916 38.2751 152.491 38.6166C152.779 38.7873 153.048 38.9202 153.336 38.977Z" fill="#24044E"/>
<path d="M118.188 23.7079C118.188 20.7011 118.557 18.1107 120.653 15.7143C122.616 13.4705 124.681 12.3018 127.508 12.3018C128.216 12.3017 130.02 12.4912 129.682 13.3262C129.541 13.6754 129.094 14.1876 128.929 14.4204C128.56 14.9414 128.379 15.0258 127.343 15.1321C123.998 15.7506 124.583 21.2941 124.583 23.4716V25.3223C124.583 26.1373 125.812 26.0675 126.259 26.0675C126.707 26.0675 127.68 26.3131 127.68 27.1897C127.68 28.0663 126.777 28.3258 126.377 28.3258C125.977 28.3258 124.583 28.1627 124.583 29.6529V31.6318V37.0063C124.583 37.7932 124.654 38.4072 125.176 38.8492C125.506 39.1285 126.098 39.1748 126.495 39.2926C126.495 39.2926 127.107 39.4371 127.107 40.083C127.107 40.7291 126.366 40.8222 126.366 40.8222L115.231 40.8688C115.231 40.8688 114.553 40.5894 114.553 39.9435C114.553 39.2974 115.231 39.2237 115.231 39.2237C116.293 39.0739 117.051 38.8491 117.487 38.568C117.923 38.2869 118.15 37.7623 118.15 36.9753V29.1639C118.15 27.9299 117.05 27.9766 116.131 27.8369C115.213 27.6971 114.671 27.3219 114.671 26.5535C114.671 25.7853 115.378 25.4318 115.684 25.4469C115.917 25.4585 116.979 25.6017 117.262 25.6214L117.272 25.6222C117.559 25.6424 118.188 25.6866 118.188 24.9732V23.7079Z" fill="#24044E"/>
<path d="M131.417 29.6557V36.6605C131.417 38.8493 131.088 39.2215 129.824 39.3675C129.824 39.3675 129.156 39.3675 129.156 40.0833C129.156 40.7989 129.824 40.8686 129.824 40.8686H139.095C139.095 40.8686 139.849 40.8049 139.849 40.1764C139.849 39.5477 139.378 39.329 139.378 39.329L139.375 39.3282C138.951 39.192 138.592 39.0772 138.248 38.8311C137.902 38.5846 137.892 37.8569 137.892 37.0602C137.892 37.0602 137.894 30.4472 137.894 29.516C137.894 28.5847 138.154 28.074 138.813 27.9794C139.473 27.8846 139.843 27.5371 139.808 26.8989C139.772 26.2609 139.449 25.6977 138.719 25.7909C137.989 25.884 136.458 26.2712 134.785 26.3878C133.113 26.5044 131.771 26.573 130.876 26.5591C129.981 26.5454 129.353 26.9332 129.353 27.5843C129.353 28.2354 129.765 28.5381 130.167 28.5615C130.569 28.5847 131.417 28.5615 131.417 29.6557Z" fill="#24044E"/>
<path fill-rule="evenodd" clip-rule="evenodd" d="M66.9683 39.1217C66.9238 39.0958 66.8803 39.0702 66.8192 39.0429C66.3587 38.8342 65.975 38.2271 65.975 37.146V28.4397C66.9536 27.2826 67.9898 26.6946 69.0643 26.6946C69.8319 26.6946 70.3884 26.9222 70.7147 27.3774C71.0408 27.8326 71.1944 28.6862 71.1944 29.957V37.146C71.1944 37.9616 71.06 38.4359 70.5228 38.7772C70.2349 38.9479 70.0046 39.0808 69.8319 39.1376C69.64 39.1945 69.5667 39.2216 69.1897 39.3611C69.1897 39.3611 68.7486 39.5072 68.7486 40.0861C68.7486 40.6649 69.3311 40.7499 69.3311 40.7499H79.7181C79.7181 40.7499 80.2834 40.6649 80.2834 40.0829C80.2834 39.5008 79.8905 39.4222 79.8905 39.4222C79.8905 39.4222 79.0351 39.1283 78.448 38.7772C77.8608 38.4261 77.7571 37.9806 77.7571 37.146V28.3258C78.8318 27.2447 79.8871 26.6946 80.9425 26.6946C82.4008 26.6946 83.1109 27.4723 83.1109 29.957V37.146C83.1109 37.8098 83.0705 38.0944 82.7079 38.5686C82.3705 39.0099 81.7445 39.2356 81.5073 39.3211C81.4897 39.3275 81.4741 39.333 81.4609 39.3379C81.4319 39.3487 81.3948 39.358 81.3529 39.3686C81.1245 39.4261 80.7544 39.5191 80.7544 40.0829C80.7544 40.7499 81.4609 40.7499 81.4609 40.7499H91.9186C91.9186 40.7499 92.6723 40.7348 92.6723 40.1062C92.6723 39.4776 91.9186 39.4077 91.9186 39.4077C91.3615 39.2853 91.1164 39.1847 90.9117 39.1006C90.8625 39.0805 90.8157 39.0612 90.7673 39.0429C90.2301 38.8342 89.6736 38.2271 89.6736 37.146V29.2932C89.6736 27.4723 89.2898 26.0117 88.5222 24.9306C87.7354 23.8493 86.2771 23.2993 84.1279 23.2993C82.5352 23.2993 81.2496 23.6217 80.3092 24.2476C79.3498 24.8926 78.4288 25.822 77.5652 27.0359H77.4885C76.7784 24.5512 74.9555 23.2993 72.058 23.2993C70.3501 23.2993 69.1508 23.6255 67.9706 24.4943C67.3136 24.8888 66.8344 25.2046 66.5149 25.4415C66.1955 25.6784 65.3351 26.3799 65.2369 26.4679C65.1387 26.5561 64.8324 26.6946 64.9388 26.389C65.045 26.0835 65.539 24.3679 65.539 24.3679C65.539 24.3679 65.8452 23.5246 65.3977 23.1806C64.9737 22.8546 64.2435 23.2993 64.2435 23.2993C62.3823 24.2666 60.3526 24.7409 56.7642 25.291C56.7642 25.291 56.1305 25.3332 56.1305 25.9005C56.1305 26.4679 56.7642 26.5239 56.7642 26.5239C57.8387 26.467 58.5488 26.6186 58.8749 26.9411C59.2012 27.2637 59.3739 27.8136 59.3739 28.5913V37.146C59.3739 37.9616 59.2204 38.4359 58.7022 38.7772C58.4336 38.9479 57.4031 39.1408 55.7257 39.1408C54.0484 39.1408 53.1696 37.7987 53.1522 36.558C53.1347 35.3173 53.1522 29.0656 53.1522 29.0656C53.1522 27.2256 52.5958 25.7462 51.4636 24.6649C50.3314 23.5838 48.7579 23.0337 46.743 23.0337C45.4958 23.0337 44.0758 23.2423 42.5023 23.6407C40.9287 24.039 39.5279 24.6459 38.2807 25.4616C37.0333 26.2773 36.4192 27.1687 36.4192 28.0982C36.4192 28.6103 36.6111 29.0846 36.9949 29.5208C37.3595 29.957 37.8777 30.1846 38.5301 30.1846C39.3552 30.1846 40.0459 29.8623 40.6408 29.2363C41.2357 28.6103 41.7922 27.4723 42.3487 25.8409C42.579 25.1961 42.9244 24.8735 43.3657 24.8735C44.4596 24.8735 45.2847 25.1013 45.8027 25.5565C46.3209 26.0306 46.5895 26.9601 46.5895 28.3637V29.2172C46.5895 29.5828 45.4382 30.1657 44.9776 30.3553C44.7473 30.4503 44.4596 30.564 44.095 30.6589C43.8539 30.7216 43.6799 30.776 43.5675 30.8111C43.51 30.8292 43.4685 30.8422 43.4426 30.8486C43.2698 30.9055 42.9819 30.9813 42.6173 31.0762C41.9915 31.264 41.4438 31.4261 40.9703 31.5661C40.6309 31.6665 40.3297 31.7558 40.0653 31.8349C39.4319 32.0436 38.7603 32.2901 38.0503 32.6126C37.3212 32.935 36.7647 33.2765 36.4001 33.599C35.6325 34.2818 35.0376 35.3441 35.0376 36.6338C35.0376 38.0565 35.5558 39.0997 36.5919 39.7636C37.609 40.4275 38.8179 40.7499 40.2187 40.7499C42.6558 40.7688 44.7857 39.7636 46.5895 37.734C46.6663 38.5117 47.0885 39.1945 47.8752 39.8206C48.6428 40.4465 49.4488 40.7499 50.293 40.7499L54.2844 40.7508C54.574 40.7504 54.8479 40.7503 55.2347 40.7507C55.4769 40.7507 55.7631 40.7508 56.1251 40.7508H56.7642L67.5882 40.7499C67.5882 40.7499 68.0357 40.6649 68.0357 40.0829C68.0357 39.5008 67.5882 39.3611 67.5882 39.3611C67.1927 39.2533 67.0776 39.1858 66.9683 39.1217ZM42.1461 37.1894C42.4916 37.7395 43.0098 38.005 43.6813 38.005C44.5831 38.005 45.5426 37.3222 46.5981 35.9755V31.6697L44.0843 32.2956C42.5299 32.7508 41.609 34.0218 41.609 35.3306C41.609 36.0323 41.7815 36.6393 42.1461 37.1894Z" fill="#24044E"/>
<path d="M18.9035 33.4008C20.8205 36.638 22.7351 37.7312 26.8174 37.7312C28.5839 37.7312 30.1619 37.1725 31.5988 36.5359C33.0354 35.8994 33.9069 36.669 33.8833 37.5028C33.8598 38.3364 33.2946 38.872 32.6821 39.2911C32.0698 39.7101 29.8828 40.8979 25.3498 40.8979C20.8166 40.8979 17.1497 39.7029 14.4068 37.3131C11.6638 34.9516 10.1182 31.7081 10.1182 27.6111C10.1182 23.3718 11.7216 20.0999 14.6378 17.7386C17.5252 15.377 21.1412 13.902 25.8406 14.2106C29.4483 14.4474 31.0572 15.2356 32.9629 16.6582C34.8686 18.0808 35.5193 20.2295 35.5989 20.9218C35.7676 22.3884 35.7225 23.414 34.0014 23.7644C31.2855 24.3171 30.4277 22.3432 30.0874 21.2377C29.747 20.1323 27.6911 17.214 25.0551 16.974C19.5436 16.4722 17.8496 20.853 17.4669 23.7644C17.084 26.6755 16.9864 30.1636 18.9035 33.4008Z" fill="#24044E"/>
<path d="M171.891 37.4328C168.84 37.4328 166.882 35.3842 166.287 31.9131H176.726C177.705 29.8455 177.417 27.8539 175.882 25.9191C174.346 23.9843 172.082 23.0171 169.107 23.0171C166.46 23.0171 164.176 23.8137 162.277 25.3881C160.358 26.9624 159.398 29.1438 159.398 31.9131C159.398 34.6256 160.299 36.7879 162.123 38.4002C163.927 40.0124 166.287 40.8091 169.223 40.8091C171.142 40.8091 172.792 40.4487 174.154 39.709C175.517 38.9882 176.418 38.0019 176.899 36.769C176.899 36.769 177.04 36.3011 176.726 35.9913C176.412 35.6813 175.977 35.9913 175.977 35.9913C175.651 36.4086 175.076 36.75 174.289 37.0155C173.502 37.3 172.696 37.4328 171.891 37.4328ZM168.84 24.7811C169.78 24.7811 170.412 25.3311 170.739 26.4313C171.046 27.5505 171.026 28.8023 170.681 30.2059H166.114V29.8645C166.114 26.4502 167.151 24.7811 168.84 24.7811Z" fill="#24044E"/>
<path fill-rule="evenodd" clip-rule="evenodd" d="M138.702 19.7373C138.824 15.5269 132.459 12.4512 132.73 13.5069C133.002 14.5626 133.315 15.7933 132.531 16.506C131.747 17.2187 130.646 16.3648 130.646 16.3648C130.646 16.3648 129.149 18.5852 129.472 20.903C129.795 23.221 131.944 24.1142 132.254 24.2416C132.254 24.2416 132.655 24.4075 133.135 24.5163C132.582 24.2228 131.864 23.6056 131.636 22.4361C131.178 20.0836 134.379 17.5116 134.322 18.1292C134.309 18.2728 134.253 18.4768 134.19 18.7097C133.982 19.4784 133.689 20.5615 134.54 20.8229C135.649 21.1635 135.914 19.8049 135.914 19.8049C135.914 19.8049 136.973 20.9142 137.003 22.2451C137.028 23.3523 136.242 24.0217 135.882 24.273C136.633 23.9568 138.618 22.6346 138.702 19.7373Z" fill="url(#paint0_linear)"/>
<defs>
<linearGradient id="paint0_linear" x1="133.52" y1="13.2502" x2="134.427" y2="24.5745" gradientUnits="userSpaceOnUse">
<stop stop-color="#FF353A"/>
<stop offset="1" stop-color="#FBBE55"/>
</linearGradient>
</defs>
</svg>
