<svg width="150" height="46" viewBox="0 0 150 46" fill="none" xmlns="http://www.w3.org/2000/svg">
<path d="M81.2288 17.7085C80.1038 17.7085 78.8934 17.9299 77.9583 18.6897C76.9802 19.3219 76.5167 19.9467 76.3195 20.1924C76.1223 20.4381 75.9788 20.3305 76.0419 20.1924C76.105 20.0543 76.9186 18.0738 76.9186 18.0738C76.9186 18.0738 77.1231 17.7085 76.9186 17.504C76.7141 17.2994 76.3195 17.504 76.3195 17.504C74.1863 18.3952 71.907 18.9797 69.4962 19.2427C69.4962 19.2427 69.0384 19.2492 69.0384 19.7387C69.0384 20.2283 69.4962 20.1924 69.4962 20.1924C70.3875 20.2947 70.9573 20.4846 71.2349 20.7622C71.4979 21.0399 71.6294 21.4782 71.6294 22.0773V33.6346C71.6294 34.3213 71.5564 34.6866 71.0449 34.935C70.7966 35.0664 70.592 35.1395 70.4605 35.1833C70.3143 35.2125 69.9929 35.271 69.4962 35.3733C69.4962 35.3733 68.9488 35.4129 68.9846 35.8612C69.0205 36.3096 69.4962 36.3814 69.4962 36.3814H79.0518C79.0518 36.3814 79.5118 36.3276 79.5118 35.8793C79.5118 35.4309 79.0518 35.3733 79.0518 35.3733C78.4819 35.271 78.1313 35.2125 77.9706 35.1833C77.8099 35.1395 77.5906 35.0664 77.2985 34.935C76.7141 34.6866 76.6555 34.3213 76.6555 33.6346V30.9754C77.6199 31.2675 78.5842 31.4136 79.5339 31.4136C81.2873 31.4136 83.0699 30.7854 84.5017 29.6166C85.9335 28.4623 86.8833 26.5044 86.8833 24.1812C86.8833 22.1795 86.3135 20.6015 85.1738 19.4472C84.0196 18.293 82.7045 17.7085 81.2288 17.7085ZM79.1395 30.0402C78.3212 30.0402 77.7075 29.6896 77.2838 29.0028C76.8602 28.3162 76.6555 27.4541 76.6555 26.446V23.0416C76.6555 22.4717 76.8894 21.8288 77.3569 21.1129C77.8099 20.397 78.3504 20.0463 78.9642 20.0463C79.7678 20.0463 80.396 20.5284 80.8781 21.4928C81.3603 22.4571 81.5941 23.699 81.5941 25.2186C81.5941 28.4331 80.7758 30.0402 79.1395 30.0402Z" fill="white"/>
<path d="M116.753 30.0238C116.958 30.0676 117.294 30.1407 117.746 30.2429C117.746 30.2429 118.267 30.2949 118.267 30.876C118.267 31.4569 117.746 31.4809 117.746 31.4809H108.601C108.601 31.4809 108.152 31.3735 108.152 30.876C108.152 30.3783 108.601 30.2949 108.601 30.2949C109.24 30.2594 109.443 30.0815 109.443 30.0815C109.633 30.0377 109.837 29.9353 110.071 29.8038C110.539 29.5409 110.626 29.1756 110.626 28.5473V22.9739C110.626 22.3748 110.495 22.1799 110.232 21.9022C109.97 21.6407 109.665 21.2511 108.753 21.1626C108.753 21.1626 108.116 21.1015 108.116 20.2946C108.116 19.4879 108.74 19.3143 108.74 19.3143C110.938 18.958 112.715 18.5713 113.658 18.2545C113.658 18.2545 114.304 17.9777 114.716 18.1076C115.127 18.2376 115.002 18.9499 115.002 18.9499C114.942 19.4511 114.847 20.2341 114.823 20.3664C114.788 20.5636 114.931 20.6846 115.053 20.456C116.007 18.6626 118.478 17.8342 120.114 17.8342C120.493 17.8342 121.847 17.7716 122.02 18.1076C122.195 18.4436 121.208 18.9496 120.526 19.9898C120.078 20.6755 119.58 21.7294 119.488 22.0342C119.397 22.3392 119.002 22.1326 119.002 22.1326C118.287 21.8378 117.148 21.7833 116.509 22.3734C115.72 23.1014 115.54 24.0978 115.54 25.2229V28.4896C115.54 29.1325 115.672 29.4831 116.11 29.7461C116.329 29.8777 116.534 29.98 116.753 30.0238Z" fill="white"/>
<path d="M89.991 18.2622C89.991 15.946 90.2715 13.9507 91.8676 12.1048C93.3621 10.3764 94.9347 9.47609 97.0869 9.47607C97.6266 9.47606 99.0001 9.62199 98.7429 10.2652C98.6353 10.5342 98.2945 10.9287 98.169 11.1081C97.8881 11.5094 97.7504 11.5744 96.9612 11.6563C94.4147 12.1327 94.8598 16.4028 94.8598 18.0802V19.5058C94.8598 20.1335 95.7956 20.0797 96.1364 20.0797C96.4771 20.0797 97.2183 20.2689 97.2183 20.9442C97.2183 21.6194 96.5309 21.8193 96.226 21.8193C95.9211 21.8193 94.8598 21.6937 94.8598 22.8415V24.3659V28.5059C94.8598 29.112 94.9141 29.585 95.3114 29.9255C95.5625 30.1406 96.0138 30.1762 96.3157 30.267C96.3157 30.267 96.7819 30.3783 96.7819 30.8758C96.7819 31.3735 96.2178 31.4452 96.2178 31.4452L87.7394 31.4811C87.7394 31.4811 87.2231 31.2659 87.2231 30.7684C87.2231 30.2707 87.7394 30.2139 87.7394 30.2139C88.5476 30.0985 89.125 29.9253 89.4569 29.7088C89.7888 29.4923 89.962 29.0882 89.962 28.482V22.4649C89.962 21.5144 89.1242 21.5503 88.4248 21.4427C87.7253 21.3351 87.3129 21.046 87.3129 20.4541C87.3129 19.8624 87.8509 19.5901 88.0841 19.6017C88.2618 19.6107 89.0704 19.721 89.2856 19.7362L89.2932 19.7368C89.5121 19.7523 89.991 19.7863 89.991 19.2368V18.2622Z" fill="white"/>
<path d="M100.064 22.8437V28.2395C100.064 29.9255 99.8128 30.2122 98.8507 30.3247C98.8507 30.3247 98.3423 30.3247 98.3423 30.876C98.3423 31.4273 98.8507 31.481 98.8507 31.481H105.91C105.91 31.481 106.484 31.4319 106.484 30.9477C106.484 30.4635 106.125 30.295 106.125 30.295L106.123 30.2944C105.8 30.1895 105.527 30.1011 105.265 29.9115C105.002 29.7216 104.994 29.161 104.994 28.5474C104.994 28.5474 104.996 23.4534 104.996 22.7361C104.996 22.0187 105.193 21.6254 105.695 21.5525C106.197 21.4795 106.479 21.2118 106.452 20.7202C106.425 20.2288 106.179 19.7949 105.623 19.8667C105.068 19.9384 103.902 20.2366 102.628 20.3265C101.355 20.4163 100.333 20.4692 99.6514 20.4585C98.97 20.4479 98.4919 20.7466 98.4919 21.2481C98.4919 21.7497 98.8056 21.9828 99.1119 22.0008C99.4183 22.0187 100.064 22.0008 100.064 22.8437Z" fill="white"/>
<path fill-rule="evenodd" clip-rule="evenodd" d="M50.9909 30.1352C50.957 30.1152 50.9239 30.0955 50.8774 30.0745C50.5268 29.9138 50.2346 29.4461 50.2346 28.6133V21.9069C50.9798 21.0156 51.7687 20.5627 52.5869 20.5627C53.1714 20.5627 53.5951 20.738 53.8435 21.0886C54.0918 21.4392 54.2088 22.0968 54.2088 23.0757V28.6133C54.2088 29.2416 54.1064 29.6069 53.6974 29.8698C53.4782 30.0014 53.3029 30.1037 53.1714 30.1475C53.0252 30.1913 52.9694 30.2121 52.6824 30.3196C52.6824 30.3196 52.3465 30.4322 52.3465 30.878C52.3465 31.3239 52.79 31.3894 52.79 31.3894H60.6989C60.6989 31.3894 61.1294 31.3239 61.1294 30.8756C61.1294 30.4272 60.8302 30.3667 60.8302 30.3667C60.8302 30.3667 60.1789 30.1403 59.7318 29.8698C59.2847 29.5994 59.2057 29.2562 59.2057 28.6133V21.8192C60.024 20.9864 60.8276 20.5627 61.6312 20.5627C62.7416 20.5627 63.2822 21.1617 63.2822 23.0757V28.6133C63.2822 29.1247 63.2515 29.3439 62.9754 29.7091C62.7185 30.049 62.2419 30.2229 62.0613 30.2888C62.0478 30.2937 62.036 30.2979 62.0259 30.3017C62.0038 30.3101 61.9756 30.3172 61.9437 30.3254C61.7698 30.3696 61.488 30.4413 61.488 30.8756C61.488 31.3894 62.0259 31.3894 62.0259 31.3894H69.9887C69.9887 31.3894 70.5625 31.3777 70.5625 30.8936C70.5625 30.4093 69.9887 30.3555 69.9887 30.3555C69.5645 30.2612 69.3778 30.1837 69.222 30.119C69.1845 30.1034 69.1488 30.0886 69.112 30.0745C68.703 29.9138 68.2792 29.4461 68.2792 28.6133V22.5643C68.2792 21.1617 67.987 20.0366 67.4025 19.2038C66.8035 18.3709 65.6931 17.9473 64.0566 17.9473C62.8439 17.9473 61.865 18.1956 61.149 18.6778C60.4185 19.1746 59.7172 19.8905 59.0596 20.8256H59.0012C58.4606 18.9116 57.0725 17.9473 54.8663 17.9473C53.5659 17.9473 52.6527 18.1986 51.7541 18.8678C51.2539 19.1717 50.889 19.4149 50.6457 19.5974C50.4025 19.7799 49.7474 20.3202 49.6726 20.388C49.5978 20.456 49.3646 20.5627 49.4456 20.3273C49.5265 20.0919 49.9027 18.7704 49.9027 18.7704C49.9027 18.7704 50.1358 18.1209 49.7951 17.8558C49.4722 17.6047 48.9163 17.9473 48.9163 17.9473C47.499 18.6924 45.9536 19.0577 43.2213 19.4815C43.2213 19.4815 42.7388 19.5139 42.7388 19.951C42.7388 20.388 43.2213 20.4311 43.2213 20.4311C44.0395 20.3873 44.5801 20.5041 44.8285 20.7526C45.0769 21.001 45.2084 21.4246 45.2084 22.0237V28.6133C45.2084 29.2416 45.0915 29.6069 44.6969 29.8698C44.4924 30.0014 43.7078 30.1499 42.4306 30.1499C41.1535 30.1499 40.4843 29.1161 40.471 28.1604C40.4577 27.2047 40.471 22.389 40.471 22.389C40.471 20.9717 40.0474 19.8321 39.1853 18.9992C38.3232 18.1664 37.1251 17.7427 35.591 17.7427C34.6413 17.7427 33.5601 17.9034 32.362 18.2102C31.1639 18.517 30.0973 18.9846 29.1476 19.6128C28.1978 20.2412 27.7302 20.9279 27.7302 21.6439C27.7302 22.0383 27.8763 22.4036 28.1686 22.7397C28.4462 23.0757 28.8407 23.251 29.3375 23.251C29.9657 23.251 30.4917 23.0027 30.9446 22.5205C31.3976 22.0383 31.8213 21.1617 32.2451 19.9051C32.4204 19.4083 32.6834 19.1599 33.0194 19.1599C33.8523 19.1599 34.4806 19.3353 34.875 19.686C35.2696 20.0512 35.4741 20.7672 35.4741 21.8484V22.5058C35.4741 22.7875 34.5975 23.2364 34.2467 23.3825C34.0714 23.4556 33.8523 23.5432 33.5747 23.6163C33.3911 23.6646 33.2587 23.7065 33.1731 23.7336C33.1293 23.7475 33.0977 23.7575 33.0779 23.7625C32.9464 23.8063 32.7272 23.8647 32.4496 23.9378C31.9731 24.0825 31.556 24.2073 31.1955 24.3151C30.9371 24.3925 30.7077 24.4612 30.5064 24.5222C30.0241 24.6829 29.5128 24.8729 28.9721 25.1213C28.417 25.3696 27.9933 25.6326 27.7156 25.8811C27.1312 26.407 26.6782 27.2253 26.6782 28.2188C26.6782 29.3147 27.0728 30.1183 27.8617 30.6296C28.6361 31.1411 29.5566 31.3894 30.6232 31.3894C32.4789 31.404 34.1006 30.6296 35.4741 29.0663C35.5326 29.6653 35.854 30.1913 36.4531 30.6735C37.0375 31.1557 37.6512 31.3894 38.294 31.3894L41.3331 31.3901C41.5537 31.3897 41.7622 31.3897 42.0568 31.39C42.2411 31.39 42.4591 31.3901 42.7347 31.3901H43.2213L51.463 31.3894C51.463 31.3894 51.8037 31.3239 51.8037 30.8756C51.8037 30.4272 51.463 30.3196 51.463 30.3196C51.1618 30.2366 51.0742 30.1846 50.9909 30.1352ZM32.0908 28.6468C32.3539 29.0705 32.7484 29.275 33.2597 29.275C33.9464 29.275 34.677 28.7491 35.4807 27.7117V24.395L33.5666 24.8771C32.383 25.2277 31.6818 26.2067 31.6818 27.2149C31.6818 27.7555 31.8132 28.223 32.0908 28.6468Z" fill="white"/>
<path d="M14.3935 25.7285C15.8531 28.2221 17.3109 29.0641 20.4193 29.0641C21.7643 29.0641 22.9658 28.6338 24.0599 28.1434C25.1538 27.6532 25.8174 28.246 25.7994 28.8882C25.7815 29.5304 25.3511 29.9429 24.8848 30.2658C24.4185 30.5885 22.7533 31.5035 19.3018 31.5035C15.8502 31.5035 13.0581 30.583 10.9696 28.7421C8.88101 26.923 7.7041 24.4246 7.7041 21.2687C7.7041 18.0032 8.92498 15.4829 11.1454 13.6639C13.3439 11.8449 16.0973 10.7087 19.6755 10.9463C22.4225 11.1288 23.6476 11.736 25.0986 12.8318C26.5496 13.9276 27.045 15.5827 27.1057 16.116C27.2341 17.2457 27.1998 18.0357 25.8893 18.3056C23.8213 18.7313 23.1682 17.2108 22.9091 16.3594C22.65 15.5079 21.0845 13.2599 19.0774 13.075C14.8808 12.6885 13.591 16.063 13.2996 18.3056C13.008 20.548 12.9337 23.2349 14.3935 25.7285Z" fill="white"/>
<path d="M130.881 28.8343C128.558 28.8343 127.068 27.2563 126.614 24.5825H134.563C135.308 22.9899 135.089 21.4557 133.92 19.9654C132.751 18.475 131.027 17.73 128.762 17.73C126.746 17.73 125.007 18.3436 123.561 19.5564C122.1 20.7691 121.369 22.4493 121.369 24.5825C121.369 26.6719 122.056 28.3376 123.444 29.5795C124.818 30.8214 126.614 31.4351 128.85 31.4351C130.311 31.4351 131.568 31.1574 132.605 30.5877C133.642 30.0324 134.329 29.2727 134.695 28.323C134.695 28.323 134.802 27.9626 134.563 27.7239C134.324 27.4852 133.993 27.7239 133.993 27.7239C133.745 28.0454 133.307 28.3084 132.707 28.5129C132.108 28.732 131.495 28.8343 130.881 28.8343ZM128.558 19.0888C129.274 19.0888 129.756 19.5124 130.004 20.3599C130.238 21.222 130.223 22.1863 129.961 23.2675H126.483V23.0045C126.483 20.3745 127.273 19.0888 128.558 19.0888Z" fill="white"/>
<path fill-rule="evenodd" clip-rule="evenodd" d="M105.611 15.2034C105.704 11.9602 100.857 9.591 101.064 10.4042C101.27 11.2174 101.509 12.1654 100.912 12.7144C100.315 13.2634 99.4767 12.6056 99.4767 12.6056C99.4767 12.6056 98.3365 14.3159 98.5828 16.1014C98.8291 17.8869 100.465 18.5749 100.701 18.6731C100.701 18.6731 101.006 18.8008 101.371 18.8846C100.95 18.6585 100.404 18.1831 100.23 17.2824C99.8813 15.4702 102.319 13.489 102.275 13.9647C102.265 14.0754 102.223 14.2325 102.175 14.4119C102.017 15.004 101.793 15.8383 102.441 16.0397C103.286 16.3021 103.488 15.2556 103.488 15.2556C103.488 15.2556 104.294 16.11 104.317 17.1352C104.336 17.9882 103.737 18.5039 103.463 18.6974C104.035 18.454 105.547 17.4356 105.611 15.2034Z" fill="url(#paint0_linear)"/>
<defs>
<linearGradient id="paint0_linear" x1="101.665" y1="10.2064" x2="102.372" y2="18.9282" gradientUnits="userSpaceOnUse">
<stop stop-color="#FF353A"/>
<stop offset="1" stop-color="#FBBE55"/>
</linearGradient>
</defs>
</svg>
