<svg width="58" height="76" viewBox="0 0 58 76" fill="none" xmlns="http://www.w3.org/2000/svg">
<path d="M21.2843 71.372C21.2843 71.372 20.5767 74 24.3502 74H46.3583C49.7189 74 49.3063 71.372 49.3063 71.372V68.9086C49.3063 65.3475 53.253 66.9346 54.9279 54.486C56.6029 42.0374 56.6029 35.9813 52.8359 33.9626C49.0689 31.9439 47.6982 35.9441 47.6982 35.9441C47.6982 35.9441 46.8061 28.5148 42.4513 28.5148C38.0965 28.5148 37.6161 32.1536 37.6161 32.1536C37.6161 32.1536 37.6161 24.8785 33.1942 24.6445C28.7722 24.4105 28.1236 28.5148 28.1236 28.5148V7.59167C28.1236 -0.0397274 19.1028 0.314046 19.1028 7.59167V37.8842C19.1028 41.1693 17.0981 41.7561 15.9189 40.442C14.7397 39.128 13.6194 37.8646 12.1455 36.6516C10.6716 35.4387 6.36736 32.8107 3.71429 34.4784C1.06121 36.1462 1.82779 38.8881 3.71452 41.3645C5.60126 43.8409 20.4243 63.9065 20.4243 63.9065C20.4243 63.9065 21.2843 65.238 21.2843 67.5628V71.372Z" fill="white" stroke="#24044E" stroke-width="3" stroke-linejoin="round"/>
</svg>
