<svg width="20" height="21" viewBox="0 0 20 21" fill="none" xmlns="http://www.w3.org/2000/svg">
<path d="M0.530496 17.6883C1.92671 16.2324 7.91795 10.3008 7.91795 10.3008C7.91795 10.3008 2.0384 4.27465 0.563328 2.94622C-0.911748 1.6178 1.04959 -0.704473 2.63181 0.877737C4.21404 2.45995 9.98644 8.23236 9.98644 8.23236C9.98644 8.23236 15.4592 2.8231 17.3575 0.861319C19.2558 -1.10046 20.8868 1.61782 19.4424 2.94622C17.998 4.27463 12.0713 10.3173 12.0713 10.3173C12.0713 10.3173 17.9977 16.2422 19.4424 17.6883C20.8871 19.1345 18.9266 21.4576 17.3739 19.7568C15.8212 18.056 10.0029 12.3858 10.0029 12.3858C10.0029 12.3858 4.28273 18.2256 2.6154 19.7732C0.94807 21.3208 -0.865723 19.1442 0.530496 17.6883Z" fill="black"/>
</svg>
