<svg width="45" height="45" viewBox="0 0 45 45" fill="none" xmlns="http://www.w3.org/2000/svg">
<path fill-rule="evenodd" clip-rule="evenodd" d="M5.625 1.3125C6.97119 1.3125 8.0625 2.40381 8.0625 3.75V4.79168C8.0625 6.28745 9.27506 7.50002 10.7708 7.50002H16.0417C17.5374 7.50002 18.75 8.71258 18.75 10.2083V10.4167C18.75 11.9124 19.9626 13.125 21.4583 13.125H35.8036C38.3181 13.125 39.4753 16.2533 37.5662 17.8897L32.399 22.3187C31.138 23.3996 31.138 25.3504 32.399 26.4313L37.5662 30.8604C39.4753 32.4967 38.3181 35.625 35.8036 35.625H21.4583C19.9625 35.625 18.75 34.4125 18.75 32.9167V32.7084C18.75 31.2126 17.5374 30 16.0416 30H10.7708C9.27506 30 8.0625 31.2126 8.0625 32.7083V41.25C8.0625 42.5962 6.97119 43.6875 5.625 43.6875C4.27881 43.6875 3.1875 42.5962 3.1875 41.25V3.75C3.1875 2.40381 4.27881 1.3125 5.625 1.3125Z" fill="#262F56"/>
</svg>
