<svg width="45" height="45" viewBox="0 0 45 45" fill="none" xmlns="http://www.w3.org/2000/svg">
<path d="M35.5 9.375C36.6046 9.375 37.5 10.2704 37.5 11.375V41.125C37.5 42.2296 36.6046 43.125 35.5 43.125H9.5C8.39543 43.125 7.5 42.2296 7.5 41.125V4.8125C7.5 3.70793 8.39543 2.8125 9.5 2.8125H33.75C34.7855 2.8125 35.625 3.65197 35.625 4.6875V4.6875C35.625 5.72303 34.7855 6.5625 33.75 6.5625H13.5937C12.8171 6.5625 12.1875 7.1921 12.1875 7.96875V7.96875C12.1875 8.7454 12.8171 9.375 13.5937 9.375H19.625C20.1773 9.375 20.625 9.82271 20.625 10.375V28.7929C20.625 29.2383 21.1636 29.4614 21.4786 29.1464L25.8964 24.7285C26.0917 24.5333 26.4083 24.5333 26.6036 24.7285L31.0214 29.1464C31.3364 29.4614 31.875 29.2383 31.875 28.7929V10.375C31.875 9.82271 32.3227 9.375 32.875 9.375H35.5Z" fill="#262F56"/>
</svg>
