<svg width="1497" height="771" viewBox="0 0 1497 771" fill="none" xmlns="http://www.w3.org/2000/svg">
<mask id="mask0" mask-type="alpha" maskUnits="userSpaceOnUse" x="0" y="0" width="1497" height="771">
<rect width="1497" height="771" fill="white"/>
</mask>
<g mask="url(#mask0)">
<mask id="mask1" mask-type="alpha" maskUnits="userSpaceOnUse" x="0" y="0" width="1497" height="771">
<rect width="1497" height="771" fill="#C4C4C4"/>
</mask>
<g mask="url(#mask1)">
<g style="mix-blend-mode:multiply">
<rect y="484" width="1497" height="287" fill="url(#paint0_linear)"/>
</g>
<rect y="-10.9541" width="1499.26" height="429.426" fill="url(#paint1_linear)"/>
<rect y="-10.4062" width="1498.76" height="443.311" fill="url(#paint2_radial)"/>
<path opacity="0.55" d="M879.975 343C843.731 343 791.474 354.486 791.474 354.486L688 466.51H1267.9L1146.53 381.87C1146.53 381.87 1036.11 365.972 1019.25 365.972C1002.39 365.972 968.032 378.135 959.828 378.135C945.079 378.135 916.22 343 879.975 343Z" fill="#E8B2B3"/>
<path d="M1065.55 343.92C1053.64 351.408 916.676 434.709 774.872 442.431C633.069 450.153 1552 442.431 1552 442.431L1338.36 355.853C1338.36 355.853 1212.57 322.86 1172.74 324.03C1132.92 325.2 1127.71 341.814 1112.07 340.878C1096.44 339.942 1077.46 336.432 1065.55 343.92Z" fill="url(#paint3_linear)"/>
<path d="M656.576 370.148L857.568 419.571L841.191 445.929L641.688 452.519L656.576 370.148Z" fill="#E197BC"/>
<path d="M758.568 277.465C725.688 277.465 740.984 302.034 652.492 289.75C603.969 283.013 512.316 234.362 453 185.042C404.141 144.418 384.527 100.892 365.5 101.262C338.487 101.787 268.413 183.148 140.5 207.892C68.9312 221.736 65.486 273.593 -0.5 289.75V490.351H1194.49C920.484 444.499 791.448 277.465 758.568 277.465Z" fill="url(#paint4_linear)"/>
<path d="M344.308 259.187C291.173 259.846 94.9022 383.078 -1 410.997V501.887L1134 493.243C689.481 449.139 615.167 297.825 569.808 286.63C524.449 275.436 514.081 296.505 475.202 292.555C436.322 288.605 397.443 258.529 344.308 259.187Z" fill="url(#paint5_linear)"/>
<path d="M1148.73 434.395C1184.02 434.395 1215.15 333.394 1267.04 347.624C1318.94 361.854 1356.72 288.835 1448.66 283.166C1504.17 279.743 1580.07 330.294 1650 347.624V582H717C995.136 529.095 1049.1 415.143 1082.31 415.143C1115.52 415.143 1113.45 434.395 1148.73 434.395Z" fill="url(#paint6_linear)"/>
<path d="M69.9752 380.51C49.9612 380.51 33.4988 368.704 0 358.545V501.331C0 501.331 730.178 517.792 725.507 501.331C720.837 484.869 565.012 478.806 506.948 455.468C482.369 445.589 383.002 449.153 340.198 437.621C269.229 418.501 259.057 420.938 215.15 420.938C171.244 420.938 157.792 368.704 130.273 368.704C102.754 368.704 89.9892 380.51 69.9752 380.51Z" fill="url(#paint7_linear)"/>
<path d="M1524.43 369.922C1544.66 369.922 1572.48 371.485 1599.04 393.316V582.772H859C979.399 571.288 1032.22 528.139 1090.68 497.008C1118.5 482.195 1201.96 430.296 1237.37 422.94C1279.1 414.269 1287.92 435.191 1320.83 430.736C1372.68 423.719 1389.12 389.414 1433.38 389.414C1477.64 389.414 1504.19 369.922 1524.43 369.922Z" fill="url(#paint8_linear)"/>
<path d="M1405.78 444.004C1440.73 444.559 1406.63 459.554 1513.19 479.554V620.096C1513.19 620.096 912.757 620.479 897.707 620.096C882.657 619.713 1112.82 518.523 1142.66 509.077C1172.49 499.631 1225.03 512.41 1250.6 509.077C1276.17 505.744 1370.83 443.448 1405.78 444.004Z" fill="url(#paint9_linear)"/>
<path d="M1396 442.761L1401.8 418.898L1407.42 442.761C1407.42 442.761 1405.43 444.931 1401.8 444.931C1398.18 444.931 1396 442.761 1396 442.761Z" fill="#344861"/>
<path opacity="0.5" d="M1288.06 472.877L1296.5 451.821L1304.67 472.877C1304.67 472.877 1301.77 474.791 1296.5 474.791C1291.22 474.791 1288.06 472.877 1288.06 472.877Z" fill="#344861"/>
<path opacity="0.5" d="M1414.69 425.47L1425.23 405.116L1435.44 425.47C1435.44 425.47 1431.82 427.32 1425.23 427.32C1418.64 427.32 1414.69 425.47 1414.69 425.47Z" fill="#344861"/>
<path opacity="0.5" d="M1433.37 423.044L1441.28 401.287L1448.94 423.044C1448.94 423.044 1446.22 425.022 1441.28 425.022C1436.33 425.022 1433.37 423.044 1433.37 423.044Z" fill="#344861"/>
<path opacity="0.5" d="M1381.47 422.406L1394.65 402.053L1407.42 422.406C1407.42 422.406 1402.89 424.257 1394.65 424.257C1386.42 424.257 1381.47 422.406 1381.47 422.406Z" fill="#344861"/>
<path opacity="0.5" d="M1441.67 422.024L1455.91 397.459L1469.7 422.024C1469.7 422.024 1464.8 424.257 1455.91 424.257C1447.01 424.257 1441.67 422.024 1441.67 422.024Z" fill="#344861"/>
<path opacity="0.5" d="M1397.04 425.915L1411.28 402.053L1425.06 425.915C1425.06 425.915 1420.17 428.085 1411.28 428.085C1402.38 428.085 1397.04 425.915 1397.04 425.915Z" fill="#344861"/>
<path opacity="0.5" d="M1372.13 420.109L1384.78 399.756L1397.04 420.109C1397.04 420.109 1392.69 421.96 1384.78 421.96C1376.88 421.96 1372.13 420.109 1372.13 420.109Z" fill="#344861"/>
<path opacity="0.5" d="M1389.78 420.109L1402.43 399.756L1414.69 420.109C1414.69 420.109 1410.34 421.96 1402.43 421.96C1394.52 421.96 1389.78 420.109 1389.78 420.109Z" fill="#344861"/>
<path opacity="0.5" d="M1301.55 470.644L1311.57 450.29L1321.27 470.644C1321.27 470.644 1317.83 472.494 1311.57 472.494C1305.31 472.494 1301.55 470.644 1301.55 470.644Z" fill="#344861"/>
<path opacity="0.5" d="M1317.12 465.985L1325.56 444.93L1333.73 465.985C1333.73 465.985 1330.83 467.899 1325.56 467.899C1320.28 467.899 1317.12 465.985 1317.12 465.985Z" fill="#344861"/>
<path opacity="0.5" d="M1306.74 473.641L1318.87 452.586L1330.61 473.641C1330.61 473.641 1326.45 475.555 1318.87 475.555C1311.29 475.555 1306.74 473.641 1306.74 473.641Z" fill="#344861"/>
<path d="M370.537 544.273L386.88 491.635L402.713 544.273C402.713 544.273 397.095 549.058 386.88 549.058C376.666 549.058 370.537 544.273 370.537 544.273Z" fill="#344861"/>
<path d="M308.264 544.273L324.607 491.635L340.439 544.273C340.439 544.273 334.821 549.058 324.607 549.058C314.392 549.058 308.264 544.273 308.264 544.273Z" fill="#344861"/>
<path d="M339.4 535.85L363.652 483.212L387.145 535.85C387.145 535.85 378.808 540.636 363.652 540.636C348.495 540.636 339.4 535.85 339.4 535.85Z" fill="#344861"/>
<path d="M326.945 536.489L341.18 490.869L354.969 536.489C354.969 536.489 350.076 540.636 341.18 540.636C332.283 540.636 326.945 536.489 326.945 536.489Z" fill="#344861"/>
<path d="M103.792 514.348L122.771 452.586L141.157 514.348C141.157 514.348 134.633 519.963 122.771 519.963C110.909 519.963 103.792 514.348 103.792 514.348Z" fill="#344861"/>
<path d="M30.0996 514.348L49.606 452.586L68.5027 514.348C68.5027 514.348 61.7974 519.963 49.606 519.963C37.4145 519.963 30.0996 514.348 30.0996 514.348Z" fill="#344861"/>
<path d="M67.4648 504.395L95.4064 442.633L122.475 504.395C122.475 504.395 112.87 510.01 95.4064 510.01C77.9429 510.01 67.4648 504.395 67.4648 504.395Z" fill="#344861"/>
<path d="M51.8955 505.162L68.7659 451.821L85.109 505.162C85.109 505.162 79.3098 510.011 68.7659 510.011C58.2219 510.011 51.8955 505.162 51.8955 505.162Z" fill="#344861"/>
<path d="M0 478.088V604.013C0 604.013 546.131 606.651 724.469 604.013C724.469 604.013 577.283 525.379 478.355 531.153C379.427 536.926 321.37 518.742 292.129 506.26C245.343 486.29 222.52 504.121 196.274 504.121L0 478.088Z" fill="url(#paint10_linear)"/>
<path d="M0 606.5V828C0 828 191.824 724.634 449.239 724.634C584.094 724.634 1151.39 743.088 928.137 704.323C704.88 665.559 971.182 669.865 1003.76 663.713C1072.17 650.792 636.463 621.257 514.031 576.955C391.6 532.653 398.802 617.565 236.761 554.804C74.7191 492.043 0 606.5 0 606.5Z" fill="#273055"/>
<path opacity="0.6" d="M654.007 551.034C655.21 554.726 698.099 554.316 698.5 551.034C698.901 547.753 693.089 545.617 685.673 546.522C678.258 547.428 672.646 544.653 666.834 544.472C661.022 544.29 652.805 547.343 654.007 551.034Z" fill="#283156"/>
<path d="M787.063 601.726C787.706 604.187 810.647 603.914 810.862 601.726C811.076 599.538 807.967 598.115 804.001 598.718C800.034 599.322 797.033 597.471 793.924 597.351C790.815 597.23 786.42 599.265 787.063 601.726Z" fill="#283156"/>
<path d="M1164.65 553.658L1156.22 522.776L1148.04 553.658C1148.04 553.658 1150.94 556.465 1156.22 556.465C1161.49 556.465 1164.65 553.658 1164.65 553.658Z" fill="#344861"/>
<path d="M1268.44 564.377L1260.01 533.496L1251.84 564.377C1251.84 564.377 1254.74 567.185 1260.01 567.185C1265.28 567.185 1268.44 564.377 1268.44 564.377Z" fill="#344861"/>
<path d="M1152.2 553.721L1143.76 523.542L1135.59 553.721C1135.59 553.721 1138.49 556.465 1143.76 556.465C1149.03 556.465 1152.2 553.721 1152.2 553.721Z" fill="#344861"/>
<path d="M1255.99 564.441L1247.55 534.262L1239.38 564.441C1239.38 564.441 1242.28 567.185 1247.55 567.185C1252.82 567.185 1255.99 564.441 1255.99 564.441Z" fill="#344861"/>
<path d="M1178.14 549.829L1166.02 518.948L1154.27 549.829C1154.27 549.829 1158.44 552.637 1166.02 552.637C1173.6 552.637 1178.14 549.829 1178.14 549.829Z" fill="#344861"/>
<path d="M1281.94 560.549L1269.81 529.668L1258.06 560.549C1258.06 560.549 1262.23 563.357 1269.81 563.357C1277.39 563.357 1281.94 560.549 1281.94 560.549Z" fill="#344861"/>
<path d="M1184.37 550.212L1176.99 523.542L1169.84 550.212C1169.84 550.212 1172.38 552.637 1176.99 552.637C1181.6 552.637 1184.37 550.212 1184.37 550.212Z" fill="#344861"/>
<path d="M1288.16 560.932L1280.78 534.262L1273.63 560.932C1273.63 560.932 1276.17 563.356 1280.78 563.356C1285.4 563.356 1288.16 560.932 1288.16 560.932Z" fill="#344861"/>
<path d="M1074.35 555.444L1061.7 518.948L1049.44 555.444C1049.44 555.444 1053.79 558.762 1061.7 558.762C1069.61 558.762 1074.35 555.444 1074.35 555.444Z" fill="#344861"/>
<path d="M1123.13 555.444L1109.95 518.948L1097.19 555.444C1097.19 555.444 1101.72 558.762 1109.95 558.762C1118.19 558.762 1123.13 555.444 1123.13 555.444Z" fill="#344861"/>
<path d="M1232.12 545.491L1218.94 508.995L1206.17 545.491C1206.17 545.491 1210.7 548.809 1218.94 548.809C1227.17 548.809 1232.12 545.491 1232.12 545.491Z" fill="#344861"/>
<path d="M1035.95 568.525L1022.77 532.73L1010 568.525C1010 568.525 1014.53 571.779 1022.77 571.779C1031.01 571.779 1035.95 568.525 1035.95 568.525Z" fill="#344861"/>
<path d="M1099.26 549.384L1080.28 513.59L1061.9 549.384C1061.9 549.384 1068.42 552.638 1080.28 552.638C1092.14 552.638 1099.26 549.384 1099.26 549.384Z" fill="#344861"/>
<path d="M1219.66 554.742L1200.68 518.948L1182.29 554.742C1182.29 554.742 1188.82 557.996 1200.68 557.996C1212.54 557.996 1219.66 554.742 1219.66 554.742Z" fill="#344861"/>
<path d="M1108.6 549.829L1097.53 518.948L1086.81 549.829C1086.81 549.829 1090.61 552.637 1097.53 552.637C1104.45 552.637 1108.6 549.829 1108.6 549.829Z" fill="#344861"/>
<path opacity="0.9" d="M1291.65 483.759L1283.22 452.878L1275.04 483.759C1275.04 483.759 1277.94 486.567 1283.22 486.567C1288.49 486.567 1291.65 483.759 1291.65 483.759Z" fill="#465378"/>
<path opacity="0.9" d="M1395.44 494.479L1387.01 463.598L1378.84 494.479C1378.84 494.479 1381.74 497.286 1387.01 497.286C1392.28 497.286 1395.44 494.479 1395.44 494.479Z" fill="#465378"/>
<path opacity="0.9" d="M1279.2 483.823L1270.76 453.644L1262.59 483.823C1262.59 483.823 1265.49 486.566 1270.76 486.566C1276.03 486.566 1279.2 483.823 1279.2 483.823Z" fill="#465378"/>
<path opacity="0.9" d="M1382.99 494.543L1374.55 464.363L1366.38 494.543C1366.38 494.543 1369.28 497.286 1374.55 497.286C1379.82 497.286 1382.99 494.543 1382.99 494.543Z" fill="#465378"/>
<path opacity="0.9" d="M1305.14 479.931L1293.02 449.05L1281.27 479.931C1281.27 479.931 1285.44 482.738 1293.02 482.738C1300.6 482.738 1305.14 479.931 1305.14 479.931Z" fill="#465378"/>
<path opacity="0.9" d="M1408.94 490.651L1396.81 459.77L1385.06 490.651C1385.06 490.651 1389.23 493.458 1396.81 493.458C1404.39 493.458 1408.94 490.651 1408.94 490.651Z" fill="#465378"/>
<path opacity="0.9" d="M1311.37 480.314L1303.99 453.644L1296.84 480.314C1296.84 480.314 1299.38 482.738 1303.99 482.738C1308.6 482.738 1311.37 480.314 1311.37 480.314Z" fill="#465378"/>
<path opacity="0.9" d="M1415.16 491.033L1407.78 464.363L1400.63 491.033C1400.63 491.033 1403.17 493.458 1407.78 493.458C1412.4 493.458 1415.16 491.033 1415.16 491.033Z" fill="#465378"/>
<path opacity="0.9" d="M1201.35 485.546L1188.7 449.05L1176.44 485.546C1176.44 485.546 1180.79 488.864 1188.7 488.864C1196.61 488.864 1201.35 485.546 1201.35 485.546Z" fill="#465378"/>
<path opacity="0.9" d="M1250.13 485.546L1236.95 449.05L1224.19 485.546C1224.19 485.546 1228.72 488.864 1236.95 488.864C1245.19 488.864 1250.13 485.546 1250.13 485.546Z" fill="#465378"/>
<path opacity="0.9" d="M1359.12 475.593L1345.94 439.097L1333.17 475.593C1333.17 475.593 1337.7 478.91 1345.94 478.91C1354.17 478.91 1359.12 475.593 1359.12 475.593Z" fill="#465378"/>
<path opacity="0.9" d="M1162.95 498.626L1149.77 462.832L1137 498.626C1137 498.626 1141.53 501.88 1149.77 501.88C1158.01 501.88 1162.95 498.626 1162.95 498.626Z" fill="#465378"/>
<path opacity="0.9" d="M1226.26 479.486L1207.28 443.691L1188.9 479.486C1188.9 479.486 1195.42 482.74 1207.28 482.74C1219.14 482.74 1226.26 479.486 1226.26 479.486Z" fill="#465378"/>
<path opacity="0.9" d="M1346.66 484.844L1327.68 449.05L1309.29 484.844C1309.29 484.844 1315.82 488.098 1327.68 488.098C1339.54 488.098 1346.66 484.844 1346.66 484.844Z" fill="#465378"/>
<path opacity="0.9" d="M1235.6 479.931L1224.53 449.05L1213.81 479.931C1213.81 479.931 1217.61 482.738 1224.53 482.738C1231.45 482.738 1235.6 479.931 1235.6 479.931Z" fill="#465378"/>
<path d="M1499.8 623.327C1499.8 623.327 888.46 623.709 866.664 623.327C844.868 622.944 968.899 587.341 996.057 587.919C1023.22 588.498 1112.34 527.331 1134.81 527.284C1157.28 527.238 1196.2 539.488 1213.34 539.677C1230.48 539.866 1290.14 519.198 1308.15 518.433C1326.16 517.667 1375.66 526.948 1385.05 527.284C1394.45 527.62 1405.86 518.433 1424.52 518.433C1443.18 518.433 1499.8 540.165 1499.8 540.165V623.327Z" fill="#353F62"/>
<path d="M202 541.638L216.762 489L231.062 541.638C231.062 541.638 225.988 546.424 216.762 546.424C207.536 546.424 202 541.638 202 541.638Z" fill="#344861"/>
<path d="M224.834 542.404L239.068 489.766L252.858 542.404C252.858 542.404 247.965 547.189 239.068 547.189C230.172 547.189 224.834 542.404 224.834 542.404Z" fill="#344861"/>
<path d="M172.295 515.177L192.856 462.539L212.774 515.177C212.774 515.177 205.706 519.963 192.856 519.963C180.005 519.963 172.295 515.177 172.295 515.177Z" fill="#344861"/>
<path d="M160.878 515.816L173.531 470.196L185.788 515.816C185.788 515.816 181.439 519.964 173.531 519.964C165.623 519.964 160.878 515.816 160.878 515.816Z" fill="#344861"/>
<path d="M321.756 556.46L343.371 494.697L364.311 556.46C364.311 556.46 356.88 562.074 343.371 562.074C329.862 562.074 321.756 556.46 321.756 556.46Z" fill="#344861"/>
<path d="M236.646 556.46L259.316 494.697L281.277 556.46C281.277 556.46 273.484 562.074 259.316 562.074C245.148 562.074 236.646 556.46 236.646 556.46Z" fill="#344861"/>
<path d="M388 559.762L410.67 498L432.631 559.762C432.631 559.762 424.838 565.377 410.67 565.377C396.501 565.377 388 559.762 388 559.762Z" fill="#344861"/>
<path d="M279.201 546.506L311.36 484.743L342.514 546.506C342.514 546.506 331.46 552.12 311.36 552.12C291.261 552.12 279.201 546.506 279.201 546.506Z" fill="#344861"/>
<path d="M269.465 566.841L288.971 513.501L307.868 566.841C307.868 566.841 301.163 571.69 288.971 571.69C276.78 571.69 269.465 566.841 269.465 566.841Z" fill="#344861"/>
<path d="M332 617.496L372.837 469L412.397 617.496C412.397 617.496 398.359 630.996 372.837 630.996C347.314 630.996 332 617.496 332 617.496Z" fill="#273055"/>
<path d="M-38 638.496L29.3047 490L94.5062 638.496C94.5062 638.496 71.3702 651.996 29.3047 651.996C-12.7607 651.996 -38 638.496 -38 638.496Z" fill="#273055"/>
<path d="M153 617.864L187.787 489L221.486 617.864C221.486 617.864 209.528 629.579 187.787 629.579C166.045 629.579 153 617.864 153 617.864Z" fill="#273055"/>
<path d="M409.018 270.629C389.037 260.755 346.999 259.176 346.999 259.176C346.999 259.176 375.271 272.754 368.385 276.628C361.499 280.502 329.999 286.595 332.999 291.673C335.999 296.75 387.5 283.548 399.999 283.548C412.497 283.548 463.5 290.657 463.5 290.657C463.5 290.657 429 280.502 409.018 270.629Z" fill="white" fill-opacity="0.4"/>
<path d="M96.3816 447.516L113.087 328.388L145.471 485.869L134.297 513.122L146.986 503.23L165.912 598.736L144.023 624.523L167.512 617.062L198.546 744.529L60.7132 756.939L73.3848 640.118L84.8158 644.922L75.9037 625.31L85.5544 536.952L100.558 543.864L88.1154 522.626L93.4424 462.362L107.35 451.875L96.3816 447.516Z" fill="#273055"/>
<path d="M1457.38 388.516L1474.09 269.388L1506.47 426.869L1495.3 454.122L1507.99 444.23L1526.91 539.736L1505.02 565.523L1528.51 558.062L1559.55 685.529L1421.71 697.939L1434.38 581.118L1445.82 585.922L1436.9 566.31L1446.55 477.952L1461.56 484.864L1449.12 463.626L1454.44 403.362L1468.35 392.875L1457.38 388.516Z" fill="#273055"/>
<path d="M387.07 125.36C387.07 125.36 365.027 106.854 369.186 101.126C371.898 97.3908 397.5 125.36 430 163.253C445.014 178.78 455.211 185.147 470 197.5C512.5 233 573 258.82 573 262.5C573 266.18 392.06 191.012 385.822 178.234C379.583 165.456 355.045 163.253 357.125 157.525C359.204 151.797 392.06 168.981 393.308 163.253C394.556 157.525 365.027 121.394 365.027 121.394L387.07 125.36Z" fill="white" fill-opacity="0.4"/>
<path d="M575.451 306.984L554 284.057C554 284.057 565.69 281.594 586.5 295.735C612.632 313.491 658.238 352.114 686 367.328C735.872 394.658 627.5 360.5 612.5 360.5C597.5 360.5 533 364 533 364C533 364 547.5 361 558 355C568.5 349 573.892 336.359 575.451 330.629C577.009 324.899 563.584 306.984 563.584 306.984H575.451Z" fill="white" fill-opacity="0.4"/>
<path d="M771.454 293.5L761.001 277.5C761.001 277.5 760.863 275.5 774.001 283C791.272 292.859 841.726 335.608 924 389C954.333 408.685 979 420 1022 442C969.091 442 987.5 421.5 843.5 371C797 332 745.712 316.501 747.84 313.508C751.34 308.587 771.454 308.587 771.454 308.587L757.501 293.5H771.454Z" fill="white" fill-opacity="0.4"/>
<path d="M161.152 451.427L179.087 346.388L209.793 484.656L198.345 508.765L211.126 499.921L229.035 583.783L206.897 606.717L230.442 599.896L260.114 711.76L122.281 724.17L136.162 621.206L147.532 625.311L138.834 608.144L149.399 530.266L164.316 536.189L152.108 517.629L158.06 464.526L172.064 455.145L161.152 451.427Z" fill="#273055"/>
<path d="M1261.15 465.427L1279.09 360.388L1309.79 498.656L1298.35 522.765L1311.13 513.921L1329.04 597.783L1306.9 620.717L1330.44 613.896L1360.11 725.76L1222.28 738.17L1236.16 635.206L1247.53 639.311L1238.83 622.144L1249.4 544.266L1264.32 550.189L1252.11 531.629L1258.06 478.526L1272.06 469.145L1261.15 465.427Z" fill="#273055"/>
<path d="M1179.15 577.427L1197.09 472.388L1227.79 610.656L1216.35 634.765L1229.13 625.921L1247.04 709.783L1224.9 732.717L1248.44 725.896L1278.11 837.76L1140.28 850.17L1154.16 747.206L1165.53 751.311L1156.83 734.144L1167.4 656.266L1182.32 662.189L1170.11 643.629L1176.06 590.526L1190.06 581.145L1179.15 577.427Z" fill="#273055"/>
<path d="M1124.15 657.427L1142.09 552.388L1172.79 690.656L1161.35 714.765L1174.13 705.921L1192.04 789.783L1169.9 812.717L1193.44 805.896L1223.11 917.76L1085.28 930.17L1099.16 827.206L1110.53 831.311L1101.83 814.144L1112.4 736.266L1127.32 742.189L1115.11 723.629L1121.06 670.526L1135.06 661.145L1124.15 657.427Z" fill="#273055"/>
<path d="M228.152 498.427L246.087 393.388L276.793 531.656L265.345 555.765L278.126 546.921L296.035 630.783L273.897 653.717L297.442 646.896L327.114 758.76L189.281 771.17L203.162 668.206L214.532 672.311L205.834 655.144L216.399 577.266L231.316 583.189L219.108 564.629L225.06 511.526L239.064 502.145L228.152 498.427Z" fill="#273055"/>
<path d="M802.566 513.139L799 512.123H802.566H806L802.566 513.139Z" fill="white"/>
<path d="M757.17 505.016L748 504H757.17H766L757.17 505.016Z" fill="white"/>
<path d="M847.17 611.563L838 610.548H847.17H856L847.17 611.563Z" fill="white"/>
<path d="M847.566 595.016L844 594H847.566H851L847.566 595.016Z" fill="white"/>
<path d="M856.566 522.279L853 521.264H856.566H860L856.566 522.279Z" fill="white"/>
<path d="M717.566 594.299L714 593.283H717.566H721L717.566 594.299Z" fill="white"/>
<path d="M734.113 594.299L728 593.283H734.113H740L734.113 594.299Z" fill="white"/>
<path d="M773.566 595.314L770 594.299H773.566H777L773.566 595.314Z" fill="white"/>
<path d="M758.566 614.609L755 613.594H758.566H762L758.566 614.609Z" fill="white"/>
<path opacity="0.8" d="M613.566 549.616L610 548.601H613.566H617L613.566 549.616Z" fill="white"/>
<path opacity="0.8" d="M639.623 559.771L633 558.756H639.623H646L639.623 559.771Z" fill="white"/>
<path opacity="0.5" d="M716.17 521.016L707 520H716.17H725L716.17 521.016Z" fill="white"/>
<path opacity="0.8" d="M647.566 542.507L644 541.491H647.566H651L647.566 542.507Z" fill="white"/>
<path opacity="0.8" d="M667.566 558.756L664 557.74H667.566H671L667.566 558.756Z" fill="white"/>
<path opacity="0.5" d="M637.566 514.016L634 513H637.566H641L637.566 514.016Z" fill="white"/>
<path opacity="0.5" d="M654.113 514.016L648 513H654.113H660L654.113 514.016Z" fill="white"/>
<path opacity="0.5" d="M693.566 515.032L690 514.017H693.566H697L693.566 515.032Z" fill="white"/>
<path opacity="0.8" d="M713.566 545.554L710 544.538H713.566H717L713.566 545.554Z" fill="white"/>
</g>
<g style="mix-blend-mode:soft-light" opacity="0.9">
<path d="M0 0H1497V771H0V0Z" fill="white"/>
</g>
<path d="M-35.5674 226.448L-0.308325 10.5926L33.9445 303.012L14.9635 351.439L34.6706 334.983L54.3846 512.232L19.6229 556.585L55.1511 545.979L90.035 783.294L-115.685 788.113L-86.6168 575.956L-70.0677 586.231L-81.5772 549.182L-59.4929 388.725L-37.8254 403.323L-54.4331 362.838L-41.2343 253.237L-19.6657 235.85L-35.5674 226.448Z" fill="#1B0339"/>
<path d="M57.1015 366.769L93.9986 260.024L137.741 397.118L116.812 422.08L139.073 412.383L164.39 495.578L125.363 520.032L165.797 511.691L265.041 805.775L-27 805.775L4.26254 539.056L23.3357 542.467L9.60042 525.754L32.3132 446.782L57.3034 451.798L37.6881 433.905L51.0472 380.135L75.4212 369.821L57.1015 366.769Z" fill="#1B0339"/>
<path d="M-16 593C-16 593 179 671.308 357 698.219C535 725.13 722.533 726.353 837 726.353C1020.61 726.353 1113 688.433 1233 705.558C1353 722.683 1481 705.558 1481 705.558V771H-16V593Z" fill="#1B0339"/>
<path d="M1440.95 223.683L1497.15 0L1535.78 305.023L1507.68 354.936L1535.78 338.298L1557.73 523.161L1507.68 568.452L1557.73 558.284L1599 806H1311L1358.42 586.014L1381.24 597.105L1366.32 558.284L1402.32 391.908L1432.17 407.622L1410.22 365.103L1432.17 251.413L1462.9 233.851L1440.95 223.683Z" fill="#1B0339"/>
<path d="M1387.8 291.472L1340.59 80L1308.12 368.372L1331.73 415.56L1308.12 399.83L1289.68 574.601L1331.73 617.42L1289.68 607.807L1255 842H1497L1457.16 634.023L1437.98 644.509L1450.52 607.807L1420.27 450.514L1395.18 465.369L1413.63 425.172L1395.18 317.688L1369.36 301.085L1387.8 291.472Z" fill="#1B0339"/>
</g>
<defs>
<linearGradient id="paint0_linear" x1="923" y1="472" x2="912.08" y2="733.104" gradientUnits="userSpaceOnUse">
<stop stop-color="white"/>
<stop offset="0.385417" stop-color="#A2F3F9"/>
<stop offset="1" stop-color="#273055"/>
</linearGradient>
<linearGradient id="paint1_linear" x1="749.628" y1="-10.9541" x2="749.628" y2="418.472" gradientUnits="userSpaceOnUse">
<stop stop-color="#934D73"/>
<stop offset="1" stop-color="#FF7D28"/>
</linearGradient>
<radialGradient id="paint2_radial" cx="0" cy="0" r="1" gradientUnits="userSpaceOnUse" gradientTransform="translate(1378 432.83) rotate(-93.7679) scale(479.348 3017.32)">
<stop offset="0.28125" stop-color="white"/>
<stop offset="0.411458" stop-color="#FFEFD0"/>
<stop offset="0.681931" stop-color="#FECBAF"/>
<stop offset="1" stop-color="#E487A9"/>
</radialGradient>
<linearGradient id="paint3_linear" x1="1035.5" y1="406" x2="1373" y2="363" gradientUnits="userSpaceOnUse">
<stop stop-color="#B080AF"/>
<stop offset="1" stop-color="#EAE8FF"/>
</linearGradient>
<linearGradient id="paint4_linear" x1="805" y1="247.497" x2="773.565" y2="464.684" gradientUnits="userSpaceOnUse">
<stop stop-color="#BF80B2"/>
<stop offset="1" stop-color="#76809F"/>
</linearGradient>
<linearGradient id="paint5_linear" x1="394.5" y1="279.5" x2="750" y2="432" gradientUnits="userSpaceOnUse">
<stop stop-color="#827BA6"/>
<stop offset="1" stop-color="#869CAC"/>
</linearGradient>
<linearGradient id="paint6_linear" x1="1523.01" y1="307.416" x2="809.028" y2="524.257" gradientUnits="userSpaceOnUse">
<stop stop-color="#E5B9E1"/>
<stop offset="0.630208" stop-color="#96A4BE"/>
<stop offset="0.989583" stop-color="#869BAC"/>
</linearGradient>
<linearGradient id="paint7_linear" x1="707" y1="517" x2="312.273" y2="484.24" gradientUnits="userSpaceOnUse">
<stop stop-color="#AAD3D1"/>
<stop offset="1" stop-color="#8390A7"/>
</linearGradient>
<linearGradient id="paint8_linear" x1="944.5" y1="583.182" x2="1548.66" y2="480.067" gradientUnits="userSpaceOnUse">
<stop offset="0.510417" stop-color="#869DAD"/>
<stop offset="1" stop-color="#FBDBD6"/>
</linearGradient>
<linearGradient id="paint9_linear" x1="977.194" y1="632.041" x2="1465.74" y2="499.312" gradientUnits="userSpaceOnUse">
<stop stop-color="#869EAE"/>
<stop offset="1" stop-color="#66427B"/>
</linearGradient>
<linearGradient id="paint10_linear" x1="84" y1="478.514" x2="767.666" y2="657.035" gradientUnits="userSpaceOnUse">
<stop stop-color="#94A9BF"/>
<stop offset="1" stop-color="#72AEB3"/>
</linearGradient>
</defs>
</svg>
